HIERARCHY
ROOT root
{
	OFFSET 0.000000 0.000000 0.000000
	CHANNELS 6 Xposition Yposition Zposition Zrotation Yrotation Xrotation
	JOINT lhip
	{
		OFFSET 0.058581 -0.082280 -0.017664
		CHANNELS 3 Zrotation Yrotation Xrotation
		JOINT lknee
		{
			OFFSET 0.043451 -0.386469 0.008037
			CHANNELS 3 Zrotation Yrotation Xrotation
			JOINT lankle
			{
				OFFSET -0.014790 -0.426874 -0.037428
				CHANNELS 3 Zrotation Yrotation Xrotation
				JOINT ltoe
				{
					OFFSET 0.041054 -0.060286 0.122042
					CHANNELS 3 Zrotation Yrotation Xrotation
					End Site
					{
						OFFSET 0.000000 0.000000 0.000000
					}
				}
			}
		}
	}
	JOINT rhip
	{
		OFFSET -0.060310 -0.090513 -0.013543
		CHANNELS 3 Zrotation Yrotation Xrotation
		JOINT rknee
		{
			OFFSET -0.043257 -0.383688 -0.004843
			CHANNELS 3 Zrotation Yrotation Xrotation
			JOINT rankle
			{
				OFFSET 0.019056 -0.420046 -0.034562
				CHANNELS 3 Zrotation Yrotation Xrotation
				JOINT rtoe
				{
					OFFSET -0.034840 -0.062106 0.130323
					CHANNELS 3 Zrotation Yrotation Xrotation
					End Site
					{
						OFFSET 0.000000 0.000000 0.000000
					}
				}
			}
		}
	}
	JOINT lowerback
	{
		OFFSET 0.004439 0.124404 -0.038385
		CHANNELS 3 Zrotation Yrotation Xrotation
		JOINT upperback
		{
			OFFSET 0.004488 0.137956 0.026820
			CHANNELS 3 Zrotation Yrotation Xrotation
			JOINT chest
			{
				OFFSET -0.002265 0.056032 0.002855
				CHANNELS 3 Zrotation Yrotation Xrotation
				JOINT lowerneck
				{
					OFFSET -0.013390 0.211636 -0.033468
					CHANNELS 3 Zrotation Yrotation Xrotation
					JOINT upperneck
					{
						OFFSET 0.010113 0.088937 0.050410
						CHANNELS 3 Zrotation Yrotation Xrotation
						End Site
						{
							OFFSET 0.000000 0.000000 0.000000
						}
					}
				}
				JOINT lclavicle
				{
					OFFSET 0.071702 0.114000 -0.018898
					CHANNELS 3 Zrotation Yrotation Xrotation
					JOINT lshoulder
					{
						OFFSET 0.122921 0.045205 -0.019046
						CHANNELS 3 Zrotation Yrotation Xrotation
						JOINT lelbow
						{
							OFFSET 0.255332 -0.015649 -0.022946
							CHANNELS 3 Zrotation Yrotation Xrotation
							JOINT lwrist
							{
								OFFSET 0.265709 0.012698 -0.007375
								CHANNELS 3 Zrotation Yrotation Xrotation
								End Site
								{
									OFFSET 0.000000 0.000000 0.000000
								}
							}
						}
					}
				}
				JOINT rclavicle
				{
					OFFSET -0.082954 0.112472 -0.023707
					CHANNELS 3 Zrotation Yrotation Xrotation
					JOINT rshoulder
					{
						OFFSET -0.113228 0.046853 -0.008472
						CHANNELS 3 Zrotation Yrotation Xrotation
						JOINT relbow
						{
							OFFSET -0.260127 -0.014369 -0.031269
							CHANNELS 3 Zrotation Yrotation Xrotation
							JOINT rwrist
							{
								OFFSET -0.269108 0.006794 -0.006027
								CHANNELS 3 Zrotation Yrotation Xrotation
								End Site
								{
									OFFSET 0.000000 0.000000 0.000000
								}
							}
						}
					}
				}
			}
		}
	}
}
MOTION
Frames: 8
Frame Time: 0.033333
0.045171 -1.720080 0.977773 -169.403380 0.725708 93.693348 5.766836 0.105693 -11.273377 -4.239565 -1.453182 13.153295 4.320428 6.270862 -15.926745 0.000000 -0.000000 0.000000 -4.521347 -8.786173 -5.449948 1.305652 -12.800685 10.220589 0.220461 -5.968315 -11.403243 0.000000 -0.000000 0.000000 -0.136082 3.460499 9.238083 -0.212637 0.424854 3.642646 -0.113279 -0.126051 3.670943 0.927942 -9.813405 -6.011658 3.603573 -11.777164 -3.629278 -28.693959 5.873524 4.896722 -51.952751 -0.539085 16.905921 -175.779792 -82.465524 -170.448479 21.238200 -5.134784 -20.590600 24.299690 3.946500 4.589609 58.167228 -0.627014 25.024431 66.978564 82.349039 74.972726 -9.039572 9.293941 -24.952242 
0.042585 -1.720476 0.977197 -168.834855 0.762139 94.038621 5.718294 -0.063525 -12.048461 -4.729657 -2.616366 13.831154 4.397481 7.312911 -15.944593 0.000000 -0.000000 0.000000 -4.575218 -8.543705 -5.504984 1.583692 -12.555015 9.872346 0.676667 -7.305355 -11.317601 0.000000 -0.000000 0.000000 -0.239720 3.648704 9.474276 -0.287124 0.526932 3.959303 -0.301050 0.001121 3.804921 1.437407 -10.229394 -6.273041 3.941905 -12.645653 -3.846792 -28.649633 5.506416 4.992970 -50.125362 0.140526 17.614367 -177.393001 -83.285389 -165.104199 24.191723 -3.878362 -20.175283 24.506056 4.508457 4.681479 58.568611 -0.140662 24.700747 57.189160 81.556087 66.860319 -9.503730 8.880345 -24.798381 
0.039676 -1.720541 0.977019 -168.209050 0.797475 94.432616 5.731799 -0.369910 -12.714647 -5.181526 -3.258222 14.253980 5.045935 7.539073 -16.302721 0.000000 -0.000000 0.000000 -4.633204 -8.591170 -5.723142 1.719851 -12.966405 9.790834 0.745973 -7.722417 -11.230490 0.000000 -0.000000 0.000000 -0.501775 4.054119 9.908559 -0.279733 0.528683 3.885775 -0.206215 0.161081 3.746066 1.242116 -10.164053 -5.749977 4.020837 -13.091773 -3.500908 -28.482566 5.018084 5.253065 -49.729434 -0.267312 17.000511 175.412904 -85.049419 -157.576121 23.871108 -4.509917 -19.354489 24.781885 5.305603 4.977499 59.144286 0.261268 24.514635 46.399110 80.869238 56.691020 -9.699812 9.023325 -23.437363 
0.035223 -1.720907 0.976259 -167.277051 0.728396 94.752746 5.437612 -0.987347 -13.414580 -5.362880 -3.816378 14.864650 5.452523 7.871549 -16.592233 0.000000 -0.000000 0.000000 -4.910575 -8.480577 -6.162205 1.701667 -13.425911 10.439957 0.915847 -8.210581 -11.981924 0.000000 -0.000000 0.000000 -0.778478 4.451406 10.646856 -0.300351 0.454174 3.983796 0.012756 0.244421 3.738482 1.239514 -10.540394 -5.649288 4.328576 -14.129446 -3.788725 -28.151673 3.882301 5.430657 -50.220289 -0.682886 16.749393 133.002554 -87.267731 -115.445255 22.367556 -3.771155 -18.874549 24.870607 6.816212 5.197946 60.271872 0.946136 24.513670 32.360063 79.295789 42.817882 -9.349077 8.563757 -22.319695 
0.032045 -1.721762 0.977162 -166.418391 1.084858 94.435390 5.456830 -1.337048 -13.432111 -5.229273 -4.483758 15.548928 5.336659 7.632143 -17.164146 0.000000 -0.000000 0.000000 -4.706148 -9.199401 -6.173028 1.649804 -13.910707 11.369158 0.770645 -8.110588 -12.439589 0.000000 -0.000000 0.000000 -0.202391 4.542123 12.119719 -0.212155 0.270454 3.771128 -0.015986 0.297222 3.560508 1.286136 -11.025685 -6.058890 4.614893 -14.928684 -3.987127 -28.347507 3.184073 5.418816 -50.423046 -0.751423 16.481645 86.615621 -87.333989 -69.450222 22.158930 -3.868997 -18.764006 24.973651 7.673565 5.065034 60.770199 1.368957 24.128353 26.922515 77.757264 37.311297 -9.267635 8.715195 -21.245735 
0.028531 -1.723323 0.976390 -165.826853 1.012981 94.779009 5.180134 -1.251675 -14.397117 -5.446967 -4.293163 16.370186 5.448629 7.367952 -17.319073 0.000000 -0.000000 0.000000 -5.092341 -9.090086 -7.534371 1.517976 -14.560987 13.392106 0.763136 -8.209650 -13.760159 0.000000 -0.000000 0.000000 -0.474169 4.702491 13.177824 -0.285800 0.443200 3.495501 0.191162 0.462712 3.437528 1.489952 -11.215154 -6.049635 4.874921 -15.586593 -4.289394 -28.273328 2.534373 5.545885 -51.187142 -1.044724 16.268746 60.031061 -85.568196 -42.978116 23.005628 -3.463434 -18.959840 25.065644 8.963756 5.410070 62.148474 2.170183 24.209582 20.175532 75.992552 29.182808 -10.683132 8.019867 -22.425073 
0.025288 -1.724439 0.974830 -165.439858 0.932585 95.081188 4.935247 -1.275091 -15.108422 -5.634526 -4.259147 16.956222 5.779311 7.136700 -17.695034 0.000000 -0.000000 0.000000 -5.586883 -9.090251 -9.347269 1.409564 -15.401736 16.225908 0.581988 -8.199340 -14.980278 0.000000 -0.000000 0.000000 -0.936136 4.909103 14.223698 -0.298771 0.745326 3.233995 0.401613 0.795333 3.308750 1.986465 -11.669427 -6.241897 5.468662 -16.619762 -4.677921 -28.352945 2.183247 5.359872 -52.315498 -1.844159 15.901159 49.887122 -83.015306 -32.664724 22.821790 -3.153720 -19.239912 25.466641 10.081867 5.494987 63.159110 3.353607 24.225200 13.391231 74.145051 22.556048 -10.944413 7.698085 -22.748593 
0.022423 -1.725639 0.972913 -165.069884 0.770339 95.316777 4.865220 -1.240825 -15.675684 -5.957816 -3.258771 17.433845 5.418314 6.692317 -18.074648 0.000000 -0.000000 0.000000 -6.254582 -9.230617 -11.256550 1.297764 -16.855330 19.269825 0.585247 -8.289209 -16.338740 0.000000 -0.000000 0.000000 -1.321392 5.309400 15.324999 -0.316098 1.103671 2.959289 0.632665 0.979147 3.297954 2.277066 -12.156886 -6.728645 5.693038 -18.044418 -4.680865 -28.404321 1.592277 5.126796 -54.089022 -3.379837 15.533994 43.413927 -79.157620 -26.641203 23.014636 -3.658865 -19.918454 25.806269 10.874297 5.291534 64.472949 4.687240 24.237183 7.273372 71.689664 16.055065 -11.320812 7.304612 -22.720953 
